<?xml version="1.0" encoding="iso-8859-1"?>
<!-- Generator: Adobe Illustrator 19.0.0, SVG Export Plug-In . SVG Version: 6.00 Build 0)  -->
<svg version="1.1" id="Layer_1" xmlns="http://www.w3.org/2000/svg" xmlns:xlink="http://www.w3.org/1999/xlink" x="0px" y="0px"
	 viewBox="0 0 512.006 512.006" style="enable-background:new 0 0 512.006 512.006;" xml:space="preserve">
<path style="fill:#F5F5F5;" d="M473.283,390.029c0.361-0.399,0.711-0.806,1.053-1.22c0.22-0.267,0.445-0.531,0.657-0.804
	c0.249-0.32,0.485-0.649,0.722-0.977c0.162-0.225,0.326-0.449,0.484-0.677c0.245-0.356,0.481-0.717,0.714-1.081
	c0.126-0.199,0.251-0.4,0.374-0.601c0.242-0.399,0.48-0.8,0.706-1.207c0.077-0.14,0.151-0.282,0.227-0.424
	c1.126-2.092,2.041-4.298,2.728-6.587c0.017-0.059,0.036-0.116,0.054-0.176c0.164-0.559,0.314-1.121,0.45-1.688
	c0.018-0.074,0.035-0.147,0.052-0.221c0.611-2.608,0.947-5.302,0.947-8.047l-0.036-220.713c0-2.101-0.204-4.17-0.566-6.197l0,0l0,0
	c-0.109-0.61-0.235-1.213-0.375-1.815c-0.011-0.047-0.023-0.096-0.034-0.144c-0.142-0.597-0.297-1.19-0.47-1.776
	c-0.003-0.007-0.005-0.016-0.008-0.024c-0.692-2.349-1.625-4.61-2.779-6.753c-0.069-0.127-0.135-0.256-0.206-0.384
	c-0.235-0.424-0.48-0.84-0.731-1.253c-0.112-0.185-0.227-0.369-0.342-0.551c-0.241-0.381-0.487-0.759-0.744-1.13
	c-0.145-0.21-0.295-0.415-0.444-0.621c-0.25-0.346-0.499-0.692-0.761-1.03c-0.19-0.244-0.391-0.479-0.586-0.717
	c-0.39-0.475-0.792-0.94-1.207-1.395c-0.286-0.314-0.571-0.627-0.869-0.931c-0.215-0.219-0.439-0.427-0.659-0.641
	c-0.297-0.287-0.596-0.574-0.905-0.851c-0.224-0.201-0.452-0.399-0.682-0.595c-0.327-0.28-0.66-0.554-0.997-0.822
	c-0.224-0.177-0.447-0.354-0.675-0.526c-0.381-0.287-0.772-0.565-1.167-0.839c-0.199-0.137-0.392-0.279-0.595-0.412
	c-0.599-0.397-1.208-0.78-1.836-1.142c-0.004-0.002-0.006-0.005-0.01-0.006l-18.178-10.491l-3.898-2.249l0,0L273.603,4.725
	c-10.918-6.302-24.37-6.3-35.287,0.006L57.404,109.221l-10.212,5.898c-0.631,0.365-1.243,0.751-1.846,1.15
	c-0.199,0.131-0.391,0.271-0.586,0.407c-0.397,0.275-0.79,0.555-1.173,0.844c-0.225,0.17-0.446,0.345-0.667,0.52
	c-0.342,0.271-0.677,0.547-1.007,0.831c-0.226,0.192-0.45,0.386-0.67,0.584c-0.315,0.284-0.621,0.575-0.925,0.87
	c-0.212,0.206-0.43,0.409-0.637,0.62c-0.325,0.331-0.636,0.674-0.947,1.016c-0.37,0.406-0.726,0.822-1.076,1.245
	c-0.216,0.262-0.436,0.521-0.645,0.79c-0.25,0.321-0.487,0.651-0.726,0.981c-0.161,0.222-0.324,0.445-0.48,0.672
	c-0.246,0.357-0.484,0.719-0.716,1.085c-0.126,0.197-0.25,0.397-0.371,0.597c-0.242,0.399-0.481,0.801-0.707,1.21
	c-0.077,0.14-0.15,0.281-0.226,0.422c-1.126,2.092-2.041,4.298-2.728,6.588c-0.017,0.059-0.036,0.117-0.054,0.177
	c-0.164,0.559-0.312,1.121-0.45,1.688c-0.017,0.074-0.035,0.149-0.052,0.222c-0.136,0.582-0.261,1.167-0.367,1.758v0.001l0,0
	c-0.372,2.056-0.58,4.156-0.579,6.287l0.036,220.713c0,2.101,0.204,4.17,0.566,6.197l0,0l0,0c0.109,0.609,0.235,1.212,0.375,1.812
	c0.011,0.049,0.024,0.099,0.035,0.147c0.141,0.596,0.296,1.186,0.469,1.772c0.003,0.011,0.006,0.021,0.01,0.031
	c0.692,2.347,1.625,4.605,2.775,6.746c0.07,0.129,0.136,0.259,0.207,0.387c0.234,0.422,0.479,0.839,0.73,1.251
	c0.114,0.186,0.229,0.371,0.346,0.556c0.241,0.379,0.485,0.755,0.74,1.125c0.146,0.211,0.299,0.419,0.449,0.627
	c0.249,0.345,0.496,0.69,0.757,1.026c0.191,0.247,0.395,0.484,0.594,0.726c0.386,0.47,0.784,0.931,1.195,1.381
	c0.287,0.316,0.575,0.632,0.875,0.937c0.214,0.217,0.437,0.426,0.657,0.639c0.297,0.287,0.597,0.574,0.906,0.852
	c0.224,0.201,0.452,0.399,0.682,0.595c0.327,0.28,0.661,0.555,1,0.824c0.222,0.176,0.445,0.352,0.672,0.525
	c0.382,0.289,0.775,0.567,1.172,0.842c0.197,0.136,0.39,0.276,0.59,0.41c0.602,0.4,1.216,0.785,1.847,1.15l22.074,12.74l0,0
	l169.088,97.586c10.918,6.302,24.37,6.299,35.287-0.006l170.701-98.592l20.424-11.797c0.631-0.365,1.245-0.751,1.847-1.151
	c0.197-0.13,0.387-0.269,0.581-0.404c0.399-0.276,0.794-0.556,1.18-0.847c0.224-0.169,0.444-0.342,0.662-0.516
	c0.344-0.272,0.681-0.551,1.013-0.836c0.224-0.191,0.446-0.382,0.665-0.579c0.317-0.286,0.625-0.58,0.93-0.875
	c0.211-0.205,0.426-0.405,0.632-0.615C472.653,390.723,472.969,390.377,473.283,390.029z"/>
<g>
	<path style="fill:#4173CD;" d="M481.866,372.603c0.376-2.054,0.585-4.153,0.584-6.285l-0.036-220.713
		c0-2.101-0.204-4.17-0.566-6.197L303.893,256L481.866,372.603z"/>
	<path style="fill:#4173CD;" d="M30.133,139.393c-0.372,2.056-0.58,4.156-0.579,6.287l0.036,220.713c0,2.101,0.204,4.17,0.566,6.197
		L208.111,256L30.133,139.393z"/>
	<path style="fill:#4173CD;" d="M69.313,409.69L69.313,409.69l169.088,97.586c10.918,6.302,24.37,6.299,35.287-0.006l168.978-97.597
		l0,0L256.002,287.376L69.313,409.69z"/>
	<path style="fill:#4173CD;" d="M256.002,224.623l186.69-122.314L273.603,4.725c-10.918-6.302-24.37-6.3-35.287,0.006
		L69.339,102.327L256.002,224.623z"/>
</g>
<g>
</g>
<g>
</g>
<g>
</g>
<g>
</g>
<g>
</g>
<g>
</g>
<g>
</g>
<g>
</g>
<g>
</g>
<g>
</g>
<g>
</g>
<g>
</g>
<g>
</g>
<g>
</g>
<g>
</g>
</svg>
