<?xml version="1.0" encoding="utf-8"?>
<!-- Generator: Adobe Illustrator 24.0.3, SVG Export Plug-In . SVG Version: 6.00 Build 0)  -->
<svg version="1.1" id="Layer_1" xmlns="http://www.w3.org/2000/svg" xmlns:xlink="http://www.w3.org/1999/xlink" x="0px" y="0px"
	 viewBox="0 0 841.9 595.3" style="enable-background:new 0 0 841.9 595.3;" xml:space="preserve">
<style type="text/css">
	.st0{fill:#E30613;}
	.st1{fill:#FFEE00;}
	.st2{fill:#D1338A;}
	.st3{fill:#3AAA35;}
	.st4{fill:#604696;}
	.st5{fill:#EC6730;}
	.st6{fill:#3192D0;}
	.st7{fill:#3C3C3B;}
	.st8{font-family:'BebasNeueBold';}
	.st9{font-size:67.721px;}
	.st10{letter-spacing:-6;}
</style>
<g>
	<rect x="212.5" y="252.4" class="st0" width="9.8" height="104.3"/>
	<path class="st0" d="M218,236.6h-1.2c-2.4,0-4.3,1.9-4.3,4.3v8h9.8v-8C222.3,238.5,220.4,236.6,218,236.6z"/>
</g>
<g>
	<rect x="232.5" y="264.8" class="st1" width="9.8" height="78.7"/>
	<path class="st1" d="M238,249.1h-1.2c-2.4,0-4.3,1.9-4.3,4.3v8h9.8v-8C242.4,251,240.4,249.1,238,249.1z"/>
</g>
<g>
	<rect x="252.5" y="252.4" class="st2" width="9.8" height="104.3"/>
	<path class="st2" d="M258,236.6h-1.2c-2.4,0-4.3,1.9-4.3,4.3v8h9.8v-8C262.4,238.5,260.4,236.6,258,236.6z"/>
</g>
<g>
	<rect x="272.6" y="264.8" class="st3" width="9.8" height="78.7"/>
	<path class="st3" d="M278.1,249.1h-1.2c-2.4,0-4.3,1.9-4.3,4.3v8h9.8v-8C282.4,251,280.5,249.1,278.1,249.1z"/>
</g>
<g>
	<rect x="292.6" y="252.4" class="st4" width="9.8" height="104.3"/>
	<path class="st4" d="M298.1,236.6h-1.2c-2.4,0-4.3,1.9-4.3,4.3v8h9.8v-8C302.4,238.5,300.5,236.6,298.1,236.6z"/>
</g>
<g>
	<rect x="312.6" y="264.8" class="st5" width="9.8" height="78.7"/>
	<path class="st5" d="M318.1,249.1H317c-2.4,0-4.3,1.9-4.3,4.3v8h9.8v-8C322.5,251,320.5,249.1,318.1,249.1z"/>
</g>
<g>
	<rect x="332.6" y="252.4" class="st6" width="9.8" height="104.3"/>
	<path class="st6" d="M338.1,236.6H337c-2.4,0-4.3,1.9-4.3,4.3v8h9.8v-8C342.5,238.5,340.5,236.6,338.1,236.6z"/>
</g>
<text transform="matrix(1 0 0 1 358.7065 286.1721)"><tspan x="0" y="0" class="st7 st8 st9">SCOTTISH</tspan><tspan x="0" y="67.8" class="st7 st8 st9">TECH </tspan><tspan x="114.6" y="67.8" class="st7 st8 st9 st10"> </tspan><tspan x="118.3" y="67.8" class="st7 st8 st9">ARMY</tspan></text>
</svg>
